# xmcd
#
# Track frame offsets:
# 150
# 9935
# 18346
# 26409
# 34938
# 42397
# 49085
# 56905
# 63790
# 72856
#
# Disc length: 1087 seconds
#
# Revision: 0
# Processed by: cddbd v1.4PL0 Copyright (c) Steve Scherf et al.
# Submitted via: Axialis_AX_CDPlayer 2.6
#
DISCID=7c043d0a
DTITLE=Blues Theme - David Allan and The Arrows
DYEAR=1900
DGENRE=
TTITLE0=Blues Theme
TTITLE1=King Fuzz
TTITLE2=Thunderball
TTITLE3=William Tell 1967
TTITLE4=Action on the street
TTITLE5=Wild Angels
TTITLE6=Unknown
TTITLE7=Fun Theme
TTITLE8=Sorry about that
TTITLE9=Ghost riders in the sky
EXTD=
EXTT0=
EXTT1=
EXTT2=
EXTT3=
EXTT4=
EXTT5=
EXTT6=
EXTT7=
EXTT8=
EXTT9=
PLAYORDER=
